# xmcd
#
# Track frame offsets: 
#        150
#        12085
#        25577
#        35330
#        48052
#        63892
#        76150
#        89617
#        98300
#        114962
#        125700
#        139015
#        150715
#        162632
#        173020
#        185100
#        199752
#        239167
#        249977
#        259690
#
# Disc length: 3601 seconds
#
# Revision: 1
# Processed by: cddbd v1.5.2PL0 Copyright (c) Steve Scherf et al.
# Submitted via: ExactAudioCopy v1.3
#
DISCID=fc0e0f14
DTITLE=Various Artist - I Got It Bad and That Ain't Good
DYEAR=1900
DGENRE=
TTITLE0=I Got It Bad and That Ain't Good
TTITLE1=Sad Letter Blues
TTITLE2=Dusty Road
TTITLE3=Rockin' Chair Blues
TTITLE4=Four O'Clock Blues
TTITLE5=Little Rain
TTITLE6=Kitchen Man
TTITLE7=Please Don't Talk About Me When I'm Gone
TTITLE8=Process
TTITLE9=Blue Tail Fly
TTITLE10=Dust My Broom
TTITLE11=Nice Work If You Can Ge<caron>.
TTITLE12=Whiskey and Wimmen
TTITLE13=Diam Feet
TTITLE14=I'm In The Mood
TTITLE15=In New Orleans
TTITLE16=Fine and Mellow
TTITLE17=How Blue Can You Get
TTITLE18=Mean Red Spider
TTITLE19=Frisco Blues
EXTD=
EXTT0=
EXTT1=
EXTT2=
EXTT3=
EXTT4=
EXTT5=
EXTT6=
EXTT7=
EXTT8=
EXTT9=
EXTT10=
EXTT11=
EXTT12=
EXTT13=
EXTT14=
EXTT15=
EXTT16=
EXTT17=
EXTT18=
EXTT19=
PLAYORDER=
